HIERARCHY
ROOT hip
{
	OFFSET 0.000000 0.000000 0.000000 
	CHANNELS 6 Xposition Yposition Zposition Xrotation Zrotation Yrotation
	JOINT abdomen
	{
		OFFSET 0.000000 3.402643 0.000000 
		CHANNELS 3 Xrotation Zrotation Yrotation
		JOINT chest
		{
			OFFSET 0.000000 8.438565 -0.680529 
			CHANNELS 3 Xrotation Zrotation Yrotation
			JOINT neck
			{
				OFFSET 0.000000 10.207942 -0.272212 
				CHANNELS 3 Xrotation Zrotation Yrotation
				JOINT head
				{
					OFFSET 0.000000 3.130431 0.000000 
					CHANNELS 3 Xrotation Zrotation Yrotation
					End Site
					{
						OFFSET 0.000000 3.130435 0.000000 
					}
				}
			}
			JOINT lCollar
			{
				OFFSET 3.470700 6.669187 -0.816635 
				CHANNELS 3 Yrotation Zrotation Xrotation
				JOINT lShldr
				{
					OFFSET 3.198488 0.000000 0.000000 
					CHANNELS 3 Zrotation Yrotation Xrotation
					JOINT lForeArm
					{
						OFFSET 10.139888 0.000000 0.000000 
						CHANNELS 3 Yrotation Zrotation Xrotation
						JOINT lHand
						{
							OFFSET 8.370511 0.000000 0.000000 
							CHANNELS 3 Zrotation Yrotation Xrotation
							End Site
							{
								OFFSET 4.083176 0.000000 0.000000 
							}
						}
					}
				}
			}
			JOINT rCollar
			{
				OFFSET -3.470700 6.669187 -0.816635 
				CHANNELS 3 Yrotation Zrotation Xrotation
				JOINT rShldr
				{
					OFFSET -3.198488 0.000000 0.000000 
					CHANNELS 3 Zrotation Yrotation Xrotation
					JOINT rForeArm
					{
						OFFSET -10.139888 0.000000 0.000000 
						CHANNELS 3 Yrotation Zrotation Xrotation
						JOINT rHand
						{
							OFFSET -8.370511 0.000000 0.000000 
							CHANNELS 3 Zrotation Yrotation Xrotation
							End Site
							{
								OFFSET -4.083176 0.000000 0.000000 
							}
						}
					}
				}
			}
		}
	}
	JOINT lThigh
	{
		OFFSET 5.308129 -1.633274 1.361059 
		CHANNELS 3 Xrotation Zrotation Yrotation
		JOINT lShin
		{
			OFFSET -2.041588 -20.007561 0.000000 
			CHANNELS 3 Xrotation Zrotation Yrotation
			JOINT lFoot
			{
				OFFSET 0.000000 -19.190928 -1.224953 
				CHANNELS 3 Xrotation Yrotation Zrotation
				End Site
				{
					OFFSET 0.000000 -2.449906 4.627600 
				}
			}
		}
	}
	JOINT rThigh
	{
		OFFSET -5.308129 -1.633274 1.361059 
		CHANNELS 3 Xrotation Zrotation Yrotation
		JOINT rShin
		{
			OFFSET 2.041588 -20.007561 0.000000 
			CHANNELS 3 Xrotation Zrotation Yrotation
			JOINT rFoot
			{
				OFFSET 0.000000 -19.190928 -1.224953 
				CHANNELS 3 Xrotation Yrotation Zrotation
				End Site
				{
					OFFSET 0.000000 -2.449906 4.627600 
				}
			}
		}
	}
}
MOTION
Frames: 6
Frame Time: 0.033333
28.100590 43.447132 37.547211 -4.532781 -5.519897 -52.981197 -25.449215 0.000000 0.000000 39.114834 3.288166 -0.702580 5.760506 -13.295181 26.799961 -16.785368 5.138378 22.430708 -6.005911 -15.138389 12.389460 -54.037930 -36.796886 23.823122 -68.412468 4.688999 -22.386333 14.913163 -30.527176 -4.740284 16.714746 7.668664 21.826897 65.262650 58.514313 53.069946 28.983723 -5.741494 -37.706654 -28.421650 47.497768 -14.552825 -23.375801 18.610300 6.263357 28.069172 1.756926 7.785453 5.803755 -0.382719 -13.795719 -7.762507 -17.366520 -11.680166 47.946301 4.041768 -16.735605 -24.169731 -3.902822 14.143349 
27.749001 43.047619 38.347630 -4.602842 -5.694587 -49.376614 -25.449215 0.000000 0.000000 39.067684 3.331747 -0.682487 5.831606 -13.179033 26.896206 -16.715221 5.033308 22.610060 -5.953753 -15.151730 12.347487 -54.056824 -36.834728 23.795099 -68.519997 4.701429 -22.638992 14.520513 -30.362223 -4.488990 16.682507 7.445837 21.804548 65.622177 58.593140 53.426155 28.940300 -5.763821 -37.742535 -28.502985 47.383385 -14.595207 -27.300198 20.035002 6.792121 34.049152 1.551265 9.502535 4.640611 -0.207657 -12.314837 -4.609355 -18.297098 -14.297668 48.182320 2.892738 -13.648065 -26.652489 -4.388048 14.848877 
27.341837 42.561443 38.562889 -4.790705 -5.858511 -45.467468 -25.449215 0.000000 0.000000 38.989941 3.333342 -0.661674 5.792628 -13.145877 27.033941 -16.373062 5.105596 22.737082 -5.878291 -15.118530 12.277256 -54.162003 -36.830650 23.836561 -68.613129 4.663362 -22.670942 14.432009 -30.217276 -4.467988 16.686077 7.284766 21.832352 65.842773 58.649517 53.605556 28.992132 -5.862502 -37.641830 -28.490995 47.166191 -14.524779 -31.473976 21.444824 7.001876 41.988216 1.436679 10.829893 3.035374 0.022002 -11.259694 -2.344731 -18.395277 -16.924129 49.551945 1.917666 -11.094987 -29.703154 -4.794610 14.817723 
26.816484 41.958508 38.150677 -5.275517 -6.243185 -40.928818 -25.449215 0.000000 0.000000 38.976227 3.254330 -0.738331 5.785507 -12.976725 27.101843 -15.893697 5.189309 22.875870 -5.904826 -14.887361 12.349736 -54.317680 -36.792717 23.843294 -68.817047 4.621722 -22.301792 15.058682 -29.901766 -4.731446 16.544081 7.237832 21.757360 66.041191 58.614819 53.864708 29.135681 -5.953094 -37.641823 -28.383509 46.969795 -14.369661 -35.417648 22.771662 6.603498 52.892338 1.471897 11.724882 0.229883 0.424571 -10.503707 -0.860651 -17.524508 -19.861675 52.206661 0.911805 -9.337360 -33.377029 -5.148633 14.131335 
26.141859 41.296173 37.017506 -5.861104 -6.751958 -35.714977 -25.449215 0.000000 0.000000 39.032562 3.191104 -0.762091 5.967901 -12.844386 27.310884 -15.531778 5.261684 23.201885 -5.876859 -14.790871 12.437146 -54.296486 -36.761162 23.746017 -68.913391 4.619581 -22.182585 15.370522 -29.798367 -4.825407 16.465977 7.357557 21.770399 65.928375 58.602982 53.838924 29.376678 -6.104940 -37.813862 -28.028023 46.742222 -14.001982 -38.022167 24.019495 5.929676 65.497498 1.578151 12.476998 -4.420378 0.985392 -10.487572 -0.608171 -15.440744 -22.936699 55.927494 -0.015653 -8.756927 -37.471565 -5.222318 12.629622 
25.279280 40.661499 35.139496 -6.103460 -7.234589 -29.923086 -25.449215 0.000000 0.000000 39.146870 3.082612 -0.757761 6.449522 -12.849608 27.518129 -15.601305 5.328495 23.449795 -5.799634 -14.702650 12.529106 -54.789551 -36.913517 23.899822 -68.559982 4.755219 -21.549292 15.640019 -29.929451 -4.923127 16.533901 7.513906 21.982279 65.503998 58.745377 53.406315 29.387938 -6.212651 -37.743725 -28.120977 46.543892 -14.092805 -36.678192 25.428457 6.106936 76.264771 1.643854 13.425327 -12.193529 2.055003 -12.476976 -2.471943 -11.802590 -26.034931 60.068325 -0.807549 -9.611197 -41.349751 -4.864994 10.208119 
